<svg version="1.1" id="Layer_1" xmlns="http://www.w3.org/2000/svg" xmlns:xlink="http://www.w3.org/1999/xlink" x="0px" y="0px"
	 width="100%" viewBox="0 0 1334 1334" enable-background="new 0 0 1334 1334" xml:space="preserve">
<path fill="#FFFFFF" opacity="1.000000" stroke="none" 
	d="
M916.000000,1335.000000 
	C610.666687,1335.000000 305.833344,1335.000000 1.000000,1335.000000 
	C1.000000,890.333313 1.000000,445.666656 1.000000,1.000000 
	C445.666656,1.000000 890.333313,1.000000 1335.000000,1.000000 
	C1335.000000,445.666656 1335.000000,890.333313 1335.000000,1335.000000 
	C1195.500000,1335.000000 1056.000000,1335.000000 916.000000,1335.000000 
M106.005630,644.500000 
	C106.005615,694.827271 105.951714,745.154724 106.100845,795.481506 
	C106.113739,799.831787 105.070335,801.378967 100.559555,801.098877 
	C94.251068,800.707092 87.899971,800.977966 81.567261,801.004517 
	C65.038254,801.073853 52.965591,809.407288 44.798714,822.841492 
	C34.364452,840.005371 33.909077,858.615723 40.010330,877.502197 
	C46.098099,896.347107 65.178978,910.391846 85.583427,910.278870 
	C194.404541,909.676514 303.230774,909.995056 412.055237,909.995056 
	C414.172607,909.995056 416.290009,909.995117 418.407379,909.995117 
	C418.020630,910.373108 417.633911,910.751099 417.247162,911.129089 
	C422.043640,922.170593 426.276947,933.501404 431.766266,944.186951 
	C440.371704,960.938416 453.518036,973.974976 469.265656,983.947632 
	C491.890900,998.275635 516.571350,1004.849182 543.668457,1002.142517 
	C563.830872,1000.128601 582.384033,993.892029 598.770203,982.354614 
	C622.654541,965.537781 639.149902,943.134827 646.048950,914.322021 
	C646.840698,911.015442 648.345581,909.884949 651.872620,909.904785 
	C680.536072,910.065491 709.201111,910.057434 737.864746,909.920471 
	C741.685425,909.902222 743.300049,910.952332 744.253479,914.888855 
	C750.730042,941.628479 765.554138,963.206665 787.391663,979.448120 
	C814.347473,999.496460 844.880310,1006.877075 878.141602,1000.891663 
	C901.814941,996.631592 922.390137,985.894409 939.479736,968.934570 
	C954.512817,954.015808 965.187622,936.391907 970.112610,915.649170 
	C971.228210,910.950806 973.400085,909.881897 977.982544,909.888916 
	C1070.141479,910.030823 1162.300781,909.920471 1254.459717,910.070312 
	C1269.376465,910.094543 1282.196289,895.731567 1282.171143,882.427002 
	C1281.897461,737.605957 1282.011475,592.784241 1281.946167,447.962738 
	C1281.944214,443.515381 1281.465698,439.009857 1280.666138,434.630646 
	C1275.187744,404.625824 1259.464722,380.779449 1235.656372,362.314209 
	C1210.884521,343.101654 1182.604736,333.038605 1151.132202,333.032532 
	C849.490112,332.974457 547.848022,332.990051 246.205948,333.039154 
	C238.248825,333.040466 230.263489,333.344391 222.340561,334.055664 
	C205.607208,335.558014 189.792099,340.755859 174.920853,348.231567 
	C159.258774,356.104736 145.621658,366.752075 134.054169,380.244629 
	C116.246887,401.015350 106.433647,424.955170 106.191063,452.017273 
	C105.618942,515.840271 106.006340,579.671875 106.005630,644.500000 
z"/>
<path fill="#EDEFE9" opacity="1.000000" stroke="none" 
	d="
M106.005630,644.000000 
	C106.006340,579.671875 105.618942,515.840271 106.191063,452.017273 
	C106.433647,424.955170 116.246887,401.015350 134.054169,380.244629 
	C145.621658,366.752075 159.258774,356.104736 174.920853,348.231567 
	C189.792099,340.755859 205.607208,335.558014 222.340561,334.055664 
	C230.263489,333.344391 238.248825,333.040466 246.205948,333.039154 
	C547.848022,332.990051 849.490112,332.974457 1151.132202,333.032532 
	C1182.604736,333.038605 1210.884521,343.101654 1235.656372,362.314209 
	C1259.464722,380.779449 1275.187744,404.625824 1280.666138,434.630646 
	C1281.465698,439.009857 1281.944214,443.515381 1281.946167,447.962738 
	C1282.011475,592.784241 1281.897461,737.605957 1282.171143,882.427002 
	C1282.196289,895.731567 1269.376465,910.094543 1254.459717,910.070312 
	C1162.300781,909.920471 1070.141479,910.030823 977.982544,909.888916 
	C973.400085,909.881897 971.228210,910.950806 970.112610,915.649170 
	C965.187622,936.391907 954.512817,954.015808 939.479736,968.934570 
	C922.390137,985.894409 901.814941,996.631592 878.141602,1000.891663 
	C844.880310,1006.877075 814.347473,999.496460 787.391663,979.448120 
	C765.554138,963.206665 750.730042,941.628479 744.253479,914.888855 
	C743.300049,910.952332 741.685425,909.902222 737.864746,909.920471 
	C709.201111,910.057434 680.536072,910.065491 651.872620,909.904785 
	C648.345581,909.884949 646.840698,911.015442 646.048950,914.322021 
	C639.149902,943.134827 622.654541,965.537781 598.770203,982.354614 
	C582.384033,993.892029 563.830872,1000.128601 543.668457,1002.142517 
	C516.571350,1004.849182 491.890900,998.275635 469.265656,983.947632 
	C453.518036,973.974976 440.371704,960.938416 431.766266,944.186951 
	C426.276947,933.501404 422.043640,922.170593 417.247162,911.129089 
	C417.633911,910.751099 418.020630,910.373108 418.407379,909.995117 
	C416.290009,909.995117 414.172607,909.995056 412.055237,909.995056 
	C303.230774,909.995056 194.404541,909.676514 85.583427,910.278870 
	C65.178978,910.391846 46.098099,896.347107 40.010330,877.502197 
	C33.909077,858.615723 34.364452,840.005371 44.798714,822.841492 
	C52.965591,809.407288 65.038254,801.073853 81.567261,801.004517 
	C87.899971,800.977966 94.251068,800.707092 100.559555,801.098877 
	C105.070335,801.378967 106.113739,799.831787 106.100845,795.481506 
	C105.951714,745.154724 106.005615,694.827271 106.005630,644.000000 
M898.192139,795.253174 
	C930.125000,812.715210 947.604187,839.901123 951.747742,875.747192 
	C952.281616,880.366333 953.559021,881.394836 957.925537,881.389709 
	C1054.745605,881.275208 1151.565674,881.303284 1248.385864,881.292053 
	C1250.165283,881.291809 1251.944702,881.142700 1254.027100,881.049438 
	C1254.132935,879.020203 1254.291504,877.397888 1254.291626,875.775574 
	C1254.302979,734.628113 1254.287964,593.480652 1254.318237,452.333221 
	C1254.322510,432.518158 1247.767578,414.984406 1235.312500,399.895782 
	C1212.880859,372.721069 1183.238770,359.991486 1148.484131,359.972168 
	C846.025330,359.804047 543.566406,359.886017 241.107590,359.846588 
	C224.029892,359.844360 207.539673,362.818787 192.188950,370.180939 
	C155.121414,387.958344 133.817993,416.066284 133.910767,458.772552 
	C134.173233,579.588867 134.002625,700.406128 134.002625,821.223022 
	C134.002625,823.333374 134.002640,825.443665 134.002640,827.786987 
	C132.294540,827.879456 131.163177,827.993286 130.031723,827.994141 
	C114.867126,828.006104 99.697716,828.232422 84.539742,827.915649 
	C75.528160,827.727417 70.164894,832.290344 66.843140,839.887817 
	C63.154816,848.323792 63.368889,857.113098 65.810287,865.803589 
	C68.939369,876.941895 74.917648,881.302002 86.342735,881.302002 
	C200.660507,881.302063 314.978271,881.302002 429.296051,881.302002 
	C431.413361,881.302002 433.530670,881.302002 436.045929,881.302002 
	C438.182312,855.428589 446.928009,832.933167 464.803741,814.401123 
	C482.951691,795.586853 505.180847,785.705933 531.153503,785.472778 
	C550.946655,785.295044 569.156921,791.437561 585.158081,803.408997 
	C611.043457,822.775513 623.732361,849.261902 626.470825,881.033081 
	C671.778503,881.033081 716.711731,881.033081 762.109924,881.033081 
	C764.906677,847.507996 778.645325,819.836975 806.847473,801.104980 
	C835.566101,782.030029 866.163147,780.453186 898.192139,795.253174 
M826.662964,949.929016 
	C854.847351,962.792725 887.118713,957.335632 906.845032,936.370117 
	C934.196289,907.300720 933.239563,865.065002 904.594238,837.007446 
	C878.233215,811.187317 831.805542,812.508301 807.008911,839.783997 
	C775.143188,874.835266 784.151062,926.936829 826.662964,949.929016 
M466.574432,912.818665 
	C477.966492,939.408752 498.053772,954.693909 526.860352,956.761475 
	C570.697876,959.908081 604.467529,922.006226 600.226196,880.285156 
	C596.198853,840.669434 556.933228,811.185364 518.155212,819.581299 
	C475.132690,828.896240 452.063568,870.020142 466.574432,912.818665 
z"/>
<path fill="#3BB2C0" opacity="1.000000" stroke="none" 
	d="
M897.849976,795.102600 
	C866.163147,780.453186 835.566101,782.030029 806.847473,801.104980 
	C778.645325,819.836975 764.906677,847.507996 762.109924,881.033081 
	C716.711731,881.033081 671.778503,881.033081 626.470825,881.033081 
	C623.732361,849.261902 611.043457,822.775513 585.158081,803.408997 
	C569.156921,791.437561 550.946655,785.295044 531.153503,785.472778 
	C505.180847,785.705933 482.951691,795.586853 464.803741,814.401123 
	C446.928009,832.933167 438.182312,855.428589 436.045929,881.302002 
	C433.530670,881.302002 431.413361,881.302002 429.296051,881.302002 
	C314.978271,881.302002 200.660507,881.302063 86.342735,881.302002 
	C74.917648,881.302002 68.939369,876.941895 65.810287,865.803589 
	C63.368889,857.113098 63.154816,848.323792 66.843140,839.887817 
	C70.164894,832.290344 75.528160,827.727417 84.539742,827.915649 
	C99.697716,828.232422 114.867126,828.006104 130.031723,827.994141 
	C131.163177,827.993286 132.294540,827.879456 134.002640,827.786987 
	C134.002640,825.443665 134.002625,823.333374 134.002625,821.223022 
	C134.002625,700.406128 134.173233,579.588867 133.910767,458.772552 
	C133.817993,416.066284 155.121414,387.958344 192.188950,370.180939 
	C207.539673,362.818787 224.029892,359.844360 241.107590,359.846588 
	C543.566406,359.886017 846.025330,359.804047 1148.484131,359.972168 
	C1183.238770,359.991486 1212.880859,372.721069 1235.312500,399.895782 
	C1247.767578,414.984406 1254.322510,432.518158 1254.318237,452.333221 
	C1254.287964,593.480652 1254.302979,734.628113 1254.291626,875.775574 
	C1254.291504,877.397888 1254.132935,879.020203 1254.027100,881.049438 
	C1251.944702,881.142700 1250.165283,881.291809 1248.385864,881.292053 
	C1151.565674,881.303284 1054.745605,881.275208 957.925537,881.389709 
	C953.559021,881.394836 952.281616,880.366333 951.747742,875.747192 
	C947.604187,839.901123 930.125000,812.715210 897.849976,795.102600 
M524.551208,734.859375 
	C542.726562,733.893066 560.435730,736.248047 577.507507,742.641174 
	C617.461304,757.602966 645.019531,785.481873 662.009644,824.231445 
	C663.122437,826.769409 664.205200,828.117249 667.338745,828.086304 
	C685.335999,827.908508 703.336304,827.939758 721.334473,828.062317 
	C724.138428,828.081360 725.327515,827.083557 726.402039,824.545410 
	C735.840759,802.249268 749.355225,782.777100 768.196350,767.456543 
	C808.563721,734.632141 853.917725,725.775208 903.099060,742.671692 
	C943.418701,756.523682 970.852600,785.080261 987.858276,823.827026 
	C989.329895,827.180176 991.029846,828.075806 994.471680,828.070923 
	C1061.634521,827.975464 1128.797485,828.001648 1195.960449,827.989990 
	C1197.566772,827.989685 1199.172974,827.840820 1201.128296,827.743896 
	C1201.128296,825.162415 1201.128296,823.021301 1201.128296,820.880188 
	C1201.128296,724.218872 1201.128296,627.557556 1201.128296,530.896240 
	C1201.128296,505.730957 1201.001831,480.564758 1201.188721,455.400879 
	C1201.265259,445.088593 1197.682495,436.638550 1190.333252,429.535095 
	C1177.972656,417.587646 1162.802612,413.085724 1146.118530,413.042542 
	C1099.121460,412.920807 1052.123901,413.000000 1005.126465,413.000000 
	C751.473877,413.000000 497.821259,413.011475 244.168686,412.960541 
	C233.342468,412.958374 222.870621,414.520660 213.130402,419.231720 
	C196.749329,427.154755 187.087662,439.048523 187.141113,458.631439 
	C187.470993,579.457214 187.306747,700.284241 187.306747,821.110901 
	C187.306747,823.232422 187.306747,825.353943 187.306747,827.687744 
	C189.160873,827.818237 190.452194,827.988403 191.743561,827.988647 
	C259.406464,828.001526 327.069427,827.983887 394.732239,828.055969 
	C397.584381,828.059021 399.164276,827.350220 400.329102,824.546570 
	C406.965210,808.573730 416.013489,794.065063 427.738800,781.321960 
	C453.562134,753.257141 485.223572,737.144409 524.551208,734.859375 
z"/>
<path fill="#F0BA28" opacity="1.000000" stroke="none" 
	d="
M826.328125,949.759644 
	C784.151062,926.936829 775.143188,874.835266 807.008911,839.783997 
	C831.805542,812.508301 878.233215,811.187317 904.594238,837.007446 
	C933.239563,865.065002 934.196289,907.300720 906.845032,936.370117 
	C887.118713,957.335632 854.847351,962.792725 826.328125,949.759644 
z"/>
<path fill="#F0BA28" opacity="1.000000" stroke="none" 
	d="
M466.410522,912.467163 
	C452.063568,870.020142 475.132690,828.896240 518.155212,819.581299 
	C556.933228,811.185364 596.198853,840.669434 600.226196,880.285156 
	C604.467529,922.006226 570.697876,959.908081 526.860352,956.761475 
	C498.053772,954.693909 477.966492,939.408752 466.410522,912.467163 
z"/>
<path fill="#EEEFE9" opacity="1.000000" stroke="none" 
	d="
M524.060791,734.865051 
	C485.223572,737.144409 453.562134,753.257141 427.738800,781.321960 
	C416.013489,794.065063 406.965210,808.573730 400.329102,824.546570 
	C399.164276,827.350220 397.584381,828.059021 394.732239,828.055969 
	C327.069427,827.983887 259.406464,828.001526 191.743561,827.988647 
	C190.452194,827.988403 189.160873,827.818237 187.306747,827.687744 
	C187.306747,825.353943 187.306747,823.232422 187.306747,821.110901 
	C187.306747,700.284241 187.470993,579.457214 187.141113,458.631439 
	C187.087662,439.048523 196.749329,427.154755 213.130402,419.231720 
	C222.870621,414.520660 233.342468,412.958374 244.168686,412.960541 
	C497.821259,413.011475 751.473877,413.000000 1005.126465,413.000000 
	C1052.123901,413.000000 1099.121460,412.920807 1146.118530,413.042542 
	C1162.802612,413.085724 1177.972656,417.587646 1190.333252,429.535095 
	C1197.682495,436.638550 1201.265259,445.088593 1201.188721,455.400879 
	C1201.001831,480.564758 1201.128296,505.730957 1201.128296,530.896240 
	C1201.128296,627.557556 1201.128296,724.218872 1201.128296,820.880188 
	C1201.128296,823.021301 1201.128296,825.162415 1201.128296,827.743896 
	C1199.172974,827.840820 1197.566772,827.989685 1195.960449,827.989990 
	C1128.797485,828.001648 1061.634521,827.975464 994.471680,828.070923 
	C991.029846,828.075806 989.329895,827.180176 987.858276,823.827026 
	C970.852600,785.080261 943.418701,756.523682 903.099060,742.671692 
	C853.917725,725.775208 808.563721,734.632141 768.196350,767.456543 
	C749.355225,782.777100 735.840759,802.249268 726.402039,824.545410 
	C725.327515,827.083557 724.138428,828.081360 721.334473,828.062317 
	C703.336304,827.939758 685.335999,827.908508 667.338745,828.086304 
	C664.205200,828.117249 663.122437,826.769409 662.009644,824.231445 
	C645.019531,785.481873 617.461304,757.602966 577.507507,742.641174 
	C560.435730,736.248047 542.726562,733.893066 524.060791,734.865051 
M1096.132080,552.500000 
	C1096.132080,562.275879 1096.132080,572.051758 1096.132080,581.943970 
	C1073.413330,581.943970 1051.370239,581.943970 1028.868042,581.943970 
	C1028.868042,579.776917 1028.868042,577.973755 1028.868042,576.170532 
	C1028.867920,559.672852 1028.887329,543.175171 1028.842285,526.677612 
	C1028.836914,524.701233 1028.715942,522.668213 1028.248291,520.759583 
	C1025.748169,510.557556 1017.322815,504.086151 1003.982056,502.626801 
	C989.599915,501.053528 973.594604,510.754944 973.878479,528.619934 
	C974.627747,575.768005 974.219116,622.936218 974.063660,670.095642 
	C974.029785,680.356750 978.731750,687.238098 987.571594,691.489624 
	C995.033203,695.078369 1002.903503,695.672302 1010.905884,693.189331 
	C1023.176208,689.382080 1028.867432,681.691345 1028.867798,668.898438 
	C1028.868286,657.233398 1028.868042,645.568420 1028.868042,633.903381 
	C1028.868042,632.136292 1028.868042,630.369202 1028.868042,628.488770 
	C1051.613647,628.488770 1073.671021,628.488770 1095.604736,628.488770 
	C1095.838257,629.153870 1096.040771,629.462952 1096.041870,629.772705 
	C1096.083252,642.103027 1096.119507,654.433350 1096.128906,666.763733 
	C1096.141724,683.532898 1103.388672,691.957886 1119.917603,694.379211 
	C1137.655151,696.977539 1151.000122,685.547241 1151.000122,667.756348 
	C1151.000244,620.929626 1151.032104,574.102905 1150.931030,527.276367 
	C1150.923950,524.022827 1150.537842,520.512329 1149.283691,517.565674 
	C1144.836548,507.115753 1135.706421,503.231598 1125.256592,502.524323 
	C1110.761597,501.543274 1095.066284,510.836517 1096.059814,528.507324 
	C1096.489502,536.148743 1096.132202,543.834412 1096.132080,552.500000 
M476.000122,558.500000 
	C476.000122,547.503967 475.861084,536.505676 476.044769,525.512695 
	C476.187469,516.975220 472.310944,510.886169 465.357574,506.473267 
	C458.251495,501.963440 450.383209,500.812805 442.307983,502.409515 
	C431.000031,504.645447 420.276428,512.263184 421.000732,528.205750 
	C421.635223,542.171753 421.035339,556.190308 421.156647,570.184143 
	C421.328339,589.992981 420.063171,609.981995 422.287750,629.567322 
	C425.933746,661.667175 443.099548,683.355408 473.506958,691.374329 
	C493.023071,696.521118 512.722900,696.231323 532.426819,692.878418 
	C570.083374,686.470703 594.199951,657.887512 594.306396,619.657654 
	C594.391846,589.002441 594.324036,558.346802 594.323730,527.691345 
	C594.323608,513.699951 588.065002,505.835632 574.348938,502.589355 
	C554.751221,497.951050 539.676270,509.642700 539.676147,529.480835 
	C539.675964,557.137390 539.700073,584.793945 539.646057,612.450378 
	C539.639221,615.931030 539.413513,619.435791 538.964111,622.887085 
	C535.903198,646.395691 508.313995,658.259888 488.901550,644.396790 
	C479.172455,637.448975 476.179077,627.214905 476.057495,615.978699 
	C475.853821,597.154480 476.000763,578.326416 476.000122,558.500000 
M293.967224,643.599854 
	C292.170929,642.121155 290.330414,640.692566 288.587433,639.153564 
	C284.723694,635.742126 281.197754,631.866699 277.017242,628.911560 
	C266.602386,621.549438 252.948959,623.190308 243.757294,632.465576 
	C235.529144,640.768555 235.389969,650.108765 243.457581,661.785217 
	C249.746109,670.886841 258.132690,677.680542 267.784058,682.867188 
	C288.684204,694.099060 311.027832,698.026245 334.455444,694.734924 
	C355.658295,691.756165 374.455322,683.712036 388.666412,666.867249 
	C406.994781,645.142151 403.900970,614.349609 381.623383,596.901306 
	C369.170166,587.147583 354.397186,583.268005 339.378326,580.006775 
	C327.208618,577.364136 314.953003,575.091614 302.850739,572.176575 
	C298.314178,571.083862 294.026733,568.731018 293.714722,562.943298 
	C293.394257,556.998047 296.564484,553.221313 301.475525,550.645447 
	C303.522156,549.572021 305.697418,548.504822 307.936798,548.077332 
	C320.978180,545.587769 333.763641,545.525269 345.628418,552.773621 
	C348.325989,554.421631 351.055237,556.055664 353.907196,557.406189 
	C363.622467,562.006958 373.259674,561.855652 382.498291,556.176941 
	C392.699188,549.906799 395.121521,537.834412 387.346619,528.820862 
	C382.746429,523.487793 377.270447,518.495850 371.273712,514.858215 
	C351.887115,503.098022 330.346710,500.141357 308.210602,502.464539 
	C287.598846,504.627808 269.268494,512.334290 255.102356,528.250244 
	C235.374008,550.415283 238.176270,582.900024 261.517883,601.103394 
	C276.703400,612.946167 294.722687,617.566895 313.166931,620.964233 
	C321.338989,622.469543 329.624420,623.412415 337.737274,625.169922 
	C345.040924,626.752136 348.816956,630.587708 348.969849,635.509644 
	C349.179565,642.259460 344.299622,644.923828 339.202789,647.350647 
	C338.604492,647.635437 337.975922,647.867188 337.344025,648.069336 
	C322.507751,652.816956 308.177673,652.197266 293.967224,643.599854 
M627.032166,686.355591 
	C634.279541,694.445801 646.965698,697.229248 657.721008,693.089172 
	C666.836426,689.580322 670.856812,682.574768 670.865845,670.163147 
	C670.871826,661.934448 670.866943,653.705750 670.866943,645.020020 
	C672.460938,645.502197 673.102356,645.628418 673.687866,645.883179 
	C692.008118,653.853760 710.439697,652.672913 728.662598,645.922058 
	C767.650513,631.478882 787.462830,592.060303 775.021179,554.290649 
	C762.634277,516.687256 718.569702,494.007812 678.706238,504.718689 
	C643.514221,514.174377 622.633118,541.908813 622.365295,580.065918 
	C622.159363,609.396851 622.093079,638.733826 622.518005,668.060059 
	C622.603760,673.977417 625.174805,679.858826 627.032166,686.355591 
M809.981018,591.477356 
	C800.255798,614.807373 790.421387,638.093079 780.913330,661.511292 
	C779.338135,665.391113 778.173584,669.949890 778.574402,674.022095 
	C779.696289,685.419922 788.088013,692.944580 800.242920,694.627441 
	C810.520081,696.050293 821.458862,689.720459 825.520752,679.726074 
	C829.026550,671.099915 832.384827,662.407715 835.533752,653.645996 
	C836.556152,650.801147 837.986023,649.905518 840.952881,649.933472 
	C856.275330,650.078125 871.600464,650.067322 886.923218,649.939087 
	C889.652771,649.916260 891.052490,650.654419 892.047119,653.320801 
	C895.183960,661.730042 898.638672,670.020508 901.954773,678.363098 
	C907.326355,691.876648 921.803650,698.232788 935.098022,692.949707 
	C945.408508,688.852356 954.260437,676.819397 947.402222,660.745728 
	C927.172424,613.332520 907.490845,565.685547 887.595947,518.129456 
	C883.411743,508.127625 874.884460,502.321655 864.370239,502.324707 
	C852.973328,502.328003 844.640930,508.046692 840.339050,518.449646 
	C830.362427,542.575684 820.268921,566.653442 809.981018,591.477356 
z"/>
<path fill="#F0BA28" opacity="1.000000" stroke="none" 
	d="
M1096.132080,552.000000 
	C1096.132202,543.834412 1096.489502,536.148743 1096.059814,528.507324 
	C1095.066284,510.836517 1110.761597,501.543274 1125.256592,502.524323 
	C1135.706421,503.231598 1144.836548,507.115753 1149.283691,517.565674 
	C1150.537842,520.512329 1150.923950,524.022827 1150.931030,527.276367 
	C1151.032104,574.102905 1151.000244,620.929626 1151.000122,667.756348 
	C1151.000122,685.547241 1137.655151,696.977539 1119.917603,694.379211 
	C1103.388672,691.957886 1096.141724,683.532898 1096.128906,666.763733 
	C1096.119507,654.433350 1096.083252,642.103027 1096.041870,629.772705 
	C1096.040771,629.462952 1095.838257,629.153870 1095.604736,628.488770 
	C1073.671021,628.488770 1051.613647,628.488770 1028.868042,628.488770 
	C1028.868042,630.369202 1028.868042,632.136292 1028.868042,633.903381 
	C1028.868042,645.568420 1028.868286,657.233398 1028.867798,668.898438 
	C1028.867432,681.691345 1023.176208,689.382080 1010.905884,693.189331 
	C1002.903503,695.672302 995.033203,695.078369 987.571594,691.489624 
	C978.731750,687.238098 974.029785,680.356750 974.063660,670.095642 
	C974.219116,622.936218 974.627747,575.768005 973.878479,528.619934 
	C973.594604,510.754944 989.599915,501.053528 1003.982056,502.626801 
	C1017.322815,504.086151 1025.748169,510.557556 1028.248291,520.759583 
	C1028.715942,522.668213 1028.836914,524.701233 1028.842285,526.677612 
	C1028.887329,543.175171 1028.867920,559.672852 1028.868042,576.170532 
	C1028.868042,577.973755 1028.868042,579.776917 1028.868042,581.943970 
	C1051.370239,581.943970 1073.413330,581.943970 1096.132080,581.943970 
	C1096.132080,572.051758 1096.132080,562.275879 1096.132080,552.000000 
z"/>
<path fill="#F0BA28" opacity="1.000000" stroke="none" 
	d="
M476.000122,559.000000 
	C476.000763,578.326416 475.853821,597.154480 476.057495,615.978699 
	C476.179077,627.214905 479.172455,637.448975 488.901550,644.396790 
	C508.313995,658.259888 535.903198,646.395691 538.964111,622.887085 
	C539.413513,619.435791 539.639221,615.931030 539.646057,612.450378 
	C539.700073,584.793945 539.675964,557.137390 539.676147,529.480835 
	C539.676270,509.642700 554.751221,497.951050 574.348938,502.589355 
	C588.065002,505.835632 594.323608,513.699951 594.323730,527.691345 
	C594.324036,558.346802 594.391846,589.002441 594.306396,619.657654 
	C594.199951,657.887512 570.083374,686.470703 532.426819,692.878418 
	C512.722900,696.231323 493.023071,696.521118 473.506958,691.374329 
	C443.099548,683.355408 425.933746,661.667175 422.287750,629.567322 
	C420.063171,609.981995 421.328339,589.992981 421.156647,570.184143 
	C421.035339,556.190308 421.635223,542.171753 421.000732,528.205750 
	C420.276428,512.263184 431.000031,504.645447 442.307983,502.409515 
	C450.383209,500.812805 458.251495,501.963440 465.357574,506.473267 
	C472.310944,510.886169 476.187469,516.975220 476.044769,525.512695 
	C475.861084,536.505676 476.000122,547.503967 476.000122,559.000000 
z"/>
<path fill="#F0BA28" opacity="1.000000" stroke="none" 
	d="
M294.266541,643.807251 
	C308.177673,652.197266 322.507751,652.816956 337.344025,648.069336 
	C337.975922,647.867188 338.604492,647.635437 339.202789,647.350647 
	C344.299622,644.923828 349.179565,642.259460 348.969849,635.509644 
	C348.816956,630.587708 345.040924,626.752136 337.737274,625.169922 
	C329.624420,623.412415 321.338989,622.469543 313.166931,620.964233 
	C294.722687,617.566895 276.703400,612.946167 261.517883,601.103394 
	C238.176270,582.900024 235.374008,550.415283 255.102356,528.250244 
	C269.268494,512.334290 287.598846,504.627808 308.210602,502.464539 
	C330.346710,500.141357 351.887115,503.098022 371.273712,514.858215 
	C377.270447,518.495850 382.746429,523.487793 387.346619,528.820862 
	C395.121521,537.834412 392.699188,549.906799 382.498291,556.176941 
	C373.259674,561.855652 363.622467,562.006958 353.907196,557.406189 
	C351.055237,556.055664 348.325989,554.421631 345.628418,552.773621 
	C333.763641,545.525269 320.978180,545.587769 307.936798,548.077332 
	C305.697418,548.504822 303.522156,549.572021 301.475525,550.645447 
	C296.564484,553.221313 293.394257,556.998047 293.714722,562.943298 
	C294.026733,568.731018 298.314178,571.083862 302.850739,572.176575 
	C314.953003,575.091614 327.208618,577.364136 339.378326,580.006775 
	C354.397186,583.268005 369.170166,587.147583 381.623383,596.901306 
	C403.900970,614.349609 406.994781,645.142151 388.666412,666.867249 
	C374.455322,683.712036 355.658295,691.756165 334.455444,694.734924 
	C311.027832,698.026245 288.684204,694.099060 267.784058,682.867188 
	C258.132690,677.680542 249.746109,670.886841 243.457581,661.785217 
	C235.389969,650.108765 235.529144,640.768555 243.757294,632.465576 
	C252.948959,623.190308 266.602386,621.549438 277.017242,628.911560 
	C281.197754,631.866699 284.723694,635.742126 288.587433,639.153564 
	C290.330414,640.692566 292.170929,642.121155 294.266541,643.807251 
z"/>
<path fill="#F0BA28" opacity="1.000000" stroke="none" 
	d="
M626.816101,686.056152 
	C625.174805,679.858826 622.603760,673.977417 622.518005,668.060059 
	C622.093079,638.733826 622.159363,609.396851 622.365295,580.065918 
	C622.633118,541.908813 643.514221,514.174377 678.706238,504.718689 
	C718.569702,494.007812 762.634277,516.687256 775.021179,554.290649 
	C787.462830,592.060303 767.650513,631.478882 728.662598,645.922058 
	C710.439697,652.672913 692.008118,653.853760 673.687866,645.883179 
	C673.102356,645.628418 672.460938,645.502197 670.866943,645.020020 
	C670.866943,653.705750 670.871826,661.934448 670.865845,670.163147 
	C670.856812,682.574768 666.836426,689.580322 657.721008,693.089172 
	C646.965698,697.229248 634.279541,694.445801 626.816101,686.056152 
M699.346558,602.130493 
	C702.469788,602.080261 705.660645,602.428833 708.704712,601.912109 
	C723.583191,599.386414 733.466064,585.591797 732.007874,569.706543 
	C730.759155,556.103271 717.113831,544.099304 703.166016,544.334045 
	C688.003235,544.589294 675.395813,556.587524 674.189331,571.910828 
	C673.080566,585.992126 683.830566,599.303223 699.346558,602.130493 
z"/>
<path fill="#F0BA28" opacity="1.000000" stroke="none" 
	d="
M810.101929,591.114014 
	C820.268921,566.653442 830.362427,542.575684 840.339050,518.449646 
	C844.640930,508.046692 852.973328,502.328003 864.370239,502.324707 
	C874.884460,502.321655 883.411743,508.127625 887.595947,518.129456 
	C907.490845,565.685547 927.172424,613.332520 947.402222,660.745728 
	C954.260437,676.819397 945.408508,688.852356 935.098022,692.949707 
	C921.803650,698.232788 907.326355,691.876648 901.954773,678.363098 
	C898.638672,670.020508 895.183960,661.730042 892.047119,653.320801 
	C891.052490,650.654419 889.652771,649.916260 886.923218,649.939087 
	C871.600464,650.067322 856.275330,650.078125 840.952881,649.933472 
	C837.986023,649.905518 836.556152,650.801147 835.533752,653.645996 
	C832.384827,662.407715 829.026550,671.099915 825.520752,679.726074 
	C821.458862,689.720459 810.520081,696.050293 800.242920,694.627441 
	C788.088013,692.944580 779.696289,685.419922 778.574402,674.022095 
	C778.173584,669.949890 779.338135,665.391113 780.913330,661.511292 
	C790.421387,638.093079 800.255798,614.807373 810.101929,591.114014 
M849.843872,607.702332 
	C860.933044,607.702332 872.022278,607.702332 883.844238,607.702332 
	C877.257935,591.800598 870.986450,576.658936 864.249390,560.393250 
	C857.504578,576.579956 851.172668,591.775940 844.661499,607.401855 
	C846.676208,607.542725 847.812927,607.622192 849.843872,607.702332 
z"/>
<path fill="#EEEEE7" opacity="1.000000" stroke="none" 
	d="
M698.933350,602.084473 
	C683.830566,599.303223 673.080566,585.992126 674.189331,571.910828 
	C675.395813,556.587524 688.003235,544.589294 703.166016,544.334045 
	C717.113831,544.099304 730.759155,556.103271 732.007874,569.706543 
	C733.466064,585.591797 723.583191,599.386414 708.704712,601.912109 
	C705.660645,602.428833 702.469788,602.080261 698.933350,602.084473 
z"/>
<path fill="#EEEDE2" opacity="1.000000" stroke="none" 
	d="
M849.396790,607.702026 
	C847.812927,607.622192 846.676208,607.542725 844.661499,607.401855 
	C851.172668,591.775940 857.504578,576.579956 864.249390,560.393250 
	C870.986450,576.658936 877.257935,591.800598 883.844238,607.702332 
	C872.022278,607.702332 860.933044,607.702332 849.396790,607.702026 
z"/>
</svg>